<svg width="22" height="22" viewBox="0 0 22 22" fill="none" xmlns="http://www.w3.org/2000/svg">
<path fill-rule="evenodd" clip-rule="evenodd" d="M11 0C4.9 0 0 4.9 0 11C0 17.1 4.9 22 11 22C17.1 22 22 17.1 22 11C22 4.9 17.1 0 11 0ZM19.9 10H15.9C15.7 7.2 14.8 4.6 13.2 2.3C16.8 3.2 19.5 6.3 19.9 10ZM14 12H8.1C8.3 14.7 9.3 17.3 11.1 19.4C12.7 17.3 13.7 14.7 14 12ZM8.1 10C8.4 7.3 9.4 4.7 11 2.6C12.7 4.8 13.7 7.4 13.9 10H8.1ZM6.1 10C6.3 7.2 7.2 4.6 8.7 2.3C5.2 3.2 2.5 6.3 2.1 10H6.1ZM2.1 12H6.1C6.3 14.8 7.2 17.4 8.8 19.7C5.2 18.8 2.5 15.7 2.1 12ZM16 12C15.7 14.8 14.8 17.4 13.3 19.7C16.8 18.8 19.5 15.7 20 12H16Z" fill="#F2F2F2"/>
</svg>
