<svg width="22" height="16" viewBox="0 0 22 16" fill="none" xmlns="http://www.w3.org/2000/svg">
<path fill-rule="evenodd" clip-rule="evenodd" d="M4.61451 15.7037C5.01361 15.3086 5.01361 14.716 4.61451 14.321C1.12245 10.8642 1.12245 5.1358 4.61451 1.67901C5.01361 1.28395 5.01361 0.691358 4.61451 0.296296C4.21542 -0.0987654 3.61678 -0.0987654 3.21769 0.296296C-1.07256 4.54321 -1.07256 11.4568 3.21769 15.7037C3.41723 15.9012 3.71655 16 3.9161 16C4.11565 16 4.41497 15.9012 4.61451 15.7037ZM7.50794 11.4568C7.90703 11.8519 7.90703 12.4444 7.50794 12.8395C7.30839 13.037 7.00907 13.1358 6.80952 13.1358C6.60998 13.1358 6.31066 13.037 6.11111 12.8395C3.41723 10.1728 3.41723 5.72839 6.11111 3.06173C6.5102 2.66667 7.10884 2.66667 7.50794 3.06173C7.90703 3.45679 7.90703 4.04938 7.50794 4.44444C6.5102 5.4321 6.01134 6.71605 6.01134 8C6.01134 9.28395 6.5102 10.5679 7.50794 11.4568ZM8.0068 8C8.0068 6.32099 9.30385 5.03704 11 5.03704C12.6961 5.03704 13.9932 6.32099 13.9932 8C13.9932 9.67901 12.6961 10.963 11 10.963C9.30385 10.963 8.0068 9.67901 8.0068 8ZM10.0023 8C10.0023 8.59259 10.4014 8.98765 11 8.98765C11.5986 8.98765 11.9977 8.59259 11.9977 8C11.9977 7.40741 11.5986 7.01235 11 7.01235C10.4014 7.01235 10.0023 7.40741 10.0023 8ZM15.9887 12.8395C15.7891 13.037 15.4898 13.1358 15.2902 13.1358C15.0907 13.1358 14.9909 13.1358 14.8912 13.037C14.3923 12.8395 14.1927 12.2469 14.4921 11.7531L14.7914 11.4568C16.6871 9.58025 16.6871 6.41975 14.6916 4.54321C14.2925 4.14815 14.2925 3.55556 14.6916 3.16049C15.0907 2.76543 15.6893 2.76543 16.0884 3.16049C18.6825 5.82716 18.6825 10.1728 15.9887 12.8395ZM18.0839 16C18.2834 16 18.5828 15.9012 18.7823 15.7037C23.0726 11.4568 23.0726 4.54321 18.7823 0.395062C18.3832 0 17.7846 0 17.3855 0.395062C16.9864 0.790123 16.9864 1.38272 17.3855 1.77778C20.8776 5.23457 20.8776 10.8642 17.3855 14.321C16.9864 14.716 16.9864 15.3086 17.3855 15.7037C17.585 15.9012 17.8844 16 18.0839 16Z" fill="#F2F2F2"/>
</svg>
